<svg width="16" height="16" viewBox="0 0 16 16" fill="none" xmlns="http://www.w3.org/2000/svg">
<g clip-path="url(#clip0)">
<path d="M8.10256 5.93799C7.2012 5.93799 6.47046 6.66869 6.47046 7.57008C6.47046 8.47144 7.20116 9.20218 8.10256 9.20218C9.00392 9.20218 9.73466 8.47148 9.73466 7.57008C9.73466 6.66869 9.00396 5.93799 8.10256 5.93799ZM8.10256 8.42496C7.6304 8.42496 7.24765 8.0422 7.24765 7.57005C7.24765 7.09789 7.6304 6.71514 8.10256 6.71514C8.57472 6.71514 8.95747 7.09789 8.95747 7.57005C8.95747 8.0422 8.57472 8.42496 8.10256 8.42496Z" fill="#4B7CC6"/>
<path d="M14.6116 2.2074L4.00303 1.0028C3.59131 0.944259 3.17415 1.06446 2.85671 1.33311C2.53929 1.57923 2.33583 1.94406 2.29325 2.34344L2.09897 3.93667H1.49662C0.641707 3.93667 0.000525073 4.6944 0.000525073 5.54931V13.496C-0.0210076 14.3112 0.622405 14.9896 1.43767 15.0111C1.45731 15.0116 1.47698 15.0117 1.49662 15.0115H12.1634C13.0183 15.0115 13.7955 14.3509 13.7955 13.496V13.1851C14.0606 13.1339 14.312 13.028 14.5338 12.8743C14.8486 12.6092 15.0502 12.2338 15.0973 11.8251L15.9911 3.93667C16.0822 3.07979 15.4672 2.30896 14.6116 2.2074ZM13.0183 13.496C13.0183 13.9234 12.5909 14.2343 12.1634 14.2343H1.49662C1.11048 14.2456 0.78827 13.9418 0.776927 13.5557C0.776332 13.5358 0.776593 13.5159 0.777708 13.496V12.0582L3.7893 9.84324C4.15108 9.56547 4.66065 9.59017 4.99394 9.90152L7.11176 11.7668C7.43338 12.0368 7.83822 12.1877 8.25812 12.1942C8.58643 12.1982 8.90935 12.1108 9.19076 11.9416L13.0184 9.72665V13.496H13.0183ZM13.0183 8.81346L8.78268 11.281C8.41897 11.4965 7.9586 11.4575 7.63632 11.1839L5.49908 9.29919C4.88654 8.77285 3.99124 8.74057 3.3424 9.22147L0.777708 11.0867V5.54931C0.777708 5.12186 1.06916 4.71385 1.49662 4.71385H12.1634C12.6201 4.73278 12.9889 5.09322 13.0183 5.54931V8.81346ZM15.2146 3.83176C15.2144 3.83432 15.2141 3.83693 15.2138 3.83949L14.3007 11.7279C14.3022 11.9324 14.2089 12.1261 14.0481 12.2525C13.9703 12.3302 13.7955 12.3691 13.7955 12.4079V5.54931C13.7648 4.66417 13.0488 3.95671 12.1634 3.93667H2.87612L3.05098 2.42116C3.08892 2.22491 3.19152 2.04707 3.34244 1.91598C3.51284 1.79817 3.71887 1.74324 3.92534 1.76053L14.5145 2.98458C14.9417 3.02516 15.2552 3.40445 15.2146 3.83176Z" fill="#4B7CC6"/>
</g>
<defs>
<clipPath id="clip0">
<rect width="16" height="16" fill="white"/>
</clipPath>
</defs>
</svg>
