<svg width="24" height="24" viewBox="0 0 24 24" fill="none" xmlns="http://www.w3.org/2000/svg">
<path d="M20.4905 3.51247C15.8111 -1.16692 8.19472 -1.16692 3.51533 3.51247C1.24862 5.78007 0 8.79431 0 12C0 15.2057 1.24862 18.22 3.51533 20.4867C5.85549 22.8269 8.92921 23.9964 12.0029 23.9964C15.0766 23.9964 18.1503 22.8269 20.4904 20.4867C25.1698 15.8073 25.1698 8.19275 20.4905 3.51247ZM19.1758 19.172C15.2207 23.1271 8.78507 23.1271 4.82995 19.172C2.91472 17.2568 1.85946 14.7093 1.85946 12C1.85946 9.29076 2.91472 6.74327 4.82995 4.8271C8.78507 0.871977 15.2207 0.872915 19.1758 4.8271C23.13 8.78221 23.13 15.2178 19.1758 19.172Z" fill="#9C9C9C"/>
<path d="M16.0092 14.5701L13.3771 11.9417L16.0092 9.31336C16.3718 8.95078 16.3718 8.36226 16.0102 7.99869C15.6466 7.63424 15.0581 7.63517 14.6946 7.99776L12.0607 10.628L9.42673 7.99776C9.06322 7.63517 8.47469 7.63424 8.11117 7.99869C7.74859 8.36221 7.74859 8.95073 8.11211 9.31336L10.7442 11.9417L8.11211 14.5701C7.74859 14.9326 7.74859 15.5212 8.11117 15.8847C8.29249 16.0669 8.53141 16.1571 8.76945 16.1571C9.00748 16.1571 9.24547 16.066 9.42678 15.8856L12.0607 13.2554L14.6946 15.8856C14.876 16.0669 15.1139 16.1571 15.352 16.1571C15.59 16.1571 15.8289 16.066 16.0103 15.8847C16.3727 15.5212 16.3727 14.9326 16.0092 14.5701Z" fill="#9C9C9C"/>
</svg>
