<svg width="16" height="14" viewBox="0 0 16 14" fill="none" xmlns="http://www.w3.org/2000/svg">
<path d="M15.8907 7.33615C14.9196 8.60853 13.7532 9.71922 12.4348 10.627L14.6896 12.8818C14.9166 13.1011 14.9229 13.4628 14.7037 13.6898C14.4844 13.9168 14.1227 13.9231 13.8957 13.7039C13.8909 13.6993 13.8863 13.6946 13.8816 13.6898L11.4182 11.2287C10.3697 11.8058 9.19663 12.1195 7.99999 12.143C3.65717 12.143 0.252076 7.53272 0.109209 7.33618C-0.0364031 7.13586 -0.0364031 6.86452 0.109209 6.6642C1.08038 5.39183 2.24679 4.28113 3.56516 3.37337L1.31033 1.11854C1.08333 0.8993 1.07703 0.53756 1.29627 0.310554C1.51551 0.0835466 1.87725 0.0772533 2.10425 0.296493C2.10901 0.301079 2.1137 0.305766 2.11832 0.310554L4.5817 2.77167C5.63025 2.19458 6.80332 1.88082 7.99996 1.85738C12.3428 1.85738 15.7479 6.46763 15.8907 6.6642C16.0364 6.86449 16.0364 7.13583 15.8907 7.33615ZM4.39601 4.20248C3.23195 4.97779 2.18853 5.92047 1.29949 7.00016C2.14061 8.01901 4.86858 11.0001 7.99999 11.0001C8.89091 10.9821 9.76682 10.7675 10.5651 10.3716L9.5731 9.37958C8.26061 10.2509 6.49023 9.89336 5.61887 8.58087C4.98412 7.6248 4.98412 6.38141 5.61887 5.42534L4.39601 4.20248ZM9.54283 7.73445C9.65466 7.50577 9.71329 7.25472 9.71426 7.00016C9.71426 6.05339 8.94676 5.28589 7.99999 5.28589C7.74543 5.28686 7.49438 5.34549 7.2657 5.45732L9.54283 7.73445ZM6.45715 6.2659C6.34532 6.49458 6.2867 6.74563 6.28573 7.00019C6.28573 7.94696 7.05323 8.71446 7.99999 8.71446C8.25455 8.71349 8.5056 8.65487 8.73428 8.54304L6.45715 6.2659ZM7.99999 3.00022C7.10908 3.01823 6.23319 3.23288 5.43489 3.62877L6.42688 4.62077C7.73937 3.74941 9.50975 4.10699 10.3811 5.41948C11.0159 6.37556 11.0159 7.61894 10.3811 8.57501L11.604 9.79787C12.768 9.02256 13.8115 8.07985 14.7005 7.00019C13.8593 5.98131 11.1314 3.00022 7.99999 3.00022Z" fill="#4B7CC6"/>
</svg>
