<svg width="16" height="16" viewBox="0 0 16 16" fill="none" xmlns="http://www.w3.org/2000/svg">
<path d="M3.2 6.98708V1.06654C3.2 0.772131 2.96107 0.533203 2.66667 0.533203C2.37226 0.533203 2.13333 0.772157 2.13333 1.06654V6.98706C0.916261 7.23401 0 8.30978 0 9.5999C0 10.89 0.916261 11.9658 2.13333 12.2127V14.9332C2.13333 15.2276 2.37226 15.4665 2.66667 15.4665C2.96107 15.4665 3.2 15.2276 3.2 14.9332V12.2127C4.41707 11.9658 5.33333 10.89 5.33333 9.59992C5.33333 8.3098 4.41707 7.23401 3.2 6.98708ZM2.66667 11.1999C1.78293 11.1999 1.06667 10.4836 1.06667 9.5999C1.06667 8.71616 1.78293 7.99987 2.66667 7.99987C3.55041 7.99987 4.26667 8.71616 4.26667 9.5999C4.26667 10.4836 3.55041 11.1999 2.66667 11.1999ZM8.53333 1.65375V1.06654C8.53333 0.772131 8.29438 0.533203 8 0.533203C7.70562 0.533203 7.46667 0.772131 7.46667 1.06654V1.65373C6.2496 1.90065 5.33333 2.97639 5.33333 4.26654C5.33333 5.55668 6.2496 6.63239 7.46667 6.87932V14.9332C7.46667 15.2276 7.7056 15.4665 8 15.4665C8.2944 15.4665 8.53333 15.2276 8.53333 14.9332V6.87935C9.75041 6.63242 10.6667 5.55668 10.6667 4.26656C10.6667 2.97644 9.75041 1.90068 8.53333 1.65375ZM8 5.86654C7.11626 5.86654 6.4 5.15027 6.4 4.26654C6.4 3.3828 7.11626 2.66654 8 2.66654C8.88374 2.66654 9.6 3.3828 9.6 4.26654C9.6 5.15027 8.88374 5.86654 8 5.86654ZM13.8667 9.12042V1.06654C13.8667 0.772131 13.6277 0.533203 13.3333 0.533203C13.039 0.533203 12.8 0.772131 12.8 1.06654V9.12042C11.5829 9.36735 10.6667 10.4431 10.6667 11.7332C10.6667 13.0233 11.5829 14.0991 12.8 14.346V14.9332C12.8 15.2276 13.039 15.4665 13.3333 15.4665C13.6277 15.4665 13.8667 15.2276 13.8667 14.9332V14.346C15.0837 14.0991 16 13.0233 16 11.7332C16 10.4431 15.0837 9.36737 13.8667 9.12042ZM13.3333 13.3332C12.4496 13.3332 11.7333 12.617 11.7333 11.7332C11.7333 10.8495 12.4496 10.1332 13.3333 10.1332C14.2171 10.1332 14.9333 10.8495 14.9333 11.7332C14.9333 12.617 14.2171 13.3332 13.3333 13.3332Z" fill="#4B7CC6"/>
</svg>
