<svg width="16" height="16" viewBox="0 0 16 16" fill="none" xmlns="http://www.w3.org/2000/svg">
<g clip-path="url(#clip0)">
<path d="M15.0008 8.46338H6.49546C6.23927 8.46338 6.02966 8.25377 6.02966 7.99759C6.02966 7.7414 6.23927 7.53179 6.49546 7.53179H15.0008C15.257 7.53179 15.4666 7.7414 15.4666 7.99759C15.4666 8.25377 15.2617 8.46338 15.0008 8.46338Z" fill="#4B7CC6"/>
<path d="M2.69926 10.1636C1.50218 10.1636 0.533325 9.19472 0.533325 7.99764C0.533325 6.80055 1.50218 5.8317 2.69926 5.8317C3.89635 5.8317 4.8652 6.80055 4.8652 7.99764C4.8652 9.19472 3.89635 10.1636 2.69926 10.1636ZM2.69926 6.76328C2.01455 6.76328 1.46491 7.31758 1.46491 7.99764C1.46491 8.68235 2.01921 9.23199 2.69926 9.23199C3.37932 9.23199 3.93362 8.67769 3.93362 7.99764C3.93362 7.31758 3.37932 6.76328 2.69926 6.76328Z" fill="#4B7CC6"/>
<path d="M15.0008 14.2861H6.49546C6.23927 14.2861 6.02966 14.0765 6.02966 13.8203C6.02966 13.5642 6.23927 13.3545 6.49546 13.3545H15.0008C15.257 13.3545 15.4666 13.5642 15.4666 13.8203C15.4666 14.0765 15.2617 14.2861 15.0008 14.2861Z" fill="#4B7CC6"/>
<path d="M2.69926 16C1.50218 16 0.533325 15.0311 0.533325 13.8341C0.533325 12.637 1.50218 11.6681 2.69926 11.6681C3.89635 11.6681 4.8652 12.637 4.8652 13.8341C4.8652 15.0265 3.89635 15.9953 2.69926 16ZM2.69926 12.5951C2.01455 12.5951 1.46491 13.1493 1.46491 13.8294C1.46491 14.5095 2.01921 15.0638 2.69926 15.0638C3.38398 15.0638 3.93362 14.5095 3.93362 13.8294C3.93362 13.1493 3.37932 12.5951 2.69926 12.5951Z" fill="#4B7CC6"/>
<path d="M15.0008 2.64111H6.49546C6.23927 2.64111 6.02966 2.43151 6.02966 2.17532C6.02966 1.91913 6.23927 1.70953 6.49546 1.70953H15.0008C15.257 1.70953 15.4666 1.91913 15.4666 2.17532C15.4666 2.43151 15.2617 2.64111 15.0008 2.64111Z" fill="#4B7CC6"/>
<path d="M2.69926 4.33203C1.50218 4.33203 0.533325 3.36318 0.533325 2.16609C0.533325 0.969004 1.50218 0.000154495 2.69926 0.000154495C3.89635 0.000154495 4.8652 0.969004 4.8652 2.16609C4.8652 3.35852 3.89635 4.33203 2.69926 4.33203ZM2.69926 0.927083C2.01455 0.927083 1.46491 1.48138 1.46491 2.16143C1.46491 2.84615 2.01921 3.39579 2.69926 3.39579C3.38398 3.39579 3.93362 2.84149 3.93362 2.16143C3.93362 1.48138 3.37932 0.927083 2.69926 0.927083Z" fill="#4B7CC6"/>
</g>
<defs>
<clipPath id="clip0">
<rect width="16" height="16" fill="white" transform="matrix(1 0 0 -1 0 16)"/>
</clipPath>
</defs>
</svg>
