<svg width="16" height="16" viewBox="0 0 16 16" fill="none" xmlns="http://www.w3.org/2000/svg">
<g clip-path="url(#clip0)">
<path d="M2.25066 6.3585C2.49279 6.16795 2.8095 6.10027 3.10838 6.17512L4.71167 6.57209C3.34935 4.75981 3.71411 2.18631 5.52635 0.823982C7.33863 -0.538342 9.91213 -0.17358 11.2745 1.63866C11.694 2.19678 11.9643 2.85271 12.0597 3.5444C12.1576 4.27739 12.0594 5.02322 11.7751 5.7059L13.4494 6.26384C13.8585 6.39951 14.1347 6.78181 14.135 7.21276V14.3035C14.133 14.855 13.6869 15.3019 13.1354 15.3048C13.0266 15.3047 12.9185 15.287 12.8153 15.2524L9.87452 14.2722L6.06889 15.971C6.00244 16.0012 5.92772 16.0081 5.85687 15.9904L5.85667 15.9912L2.63846 15.236C2.18527 15.1313 1.86449 14.7275 1.86512 14.2623V7.14634C1.86482 6.83823 2.00719 6.54732 2.25066 6.3585ZM10.2006 13.6745L13.031 14.6198C13.205 14.6779 13.393 14.5839 13.4511 14.4099C13.4625 14.3756 13.4683 14.3396 13.4682 14.3035V7.21276C13.4676 7.06892 13.3751 6.94155 13.2385 6.89644L11.4643 6.30515C11.3052 6.56396 11.1173 6.80389 10.9042 7.02041L10.2006 7.72859V13.6745ZM6.26628 15.1527L9.5338 13.6986V8.3957L8.24093 9.68351C8.10923 9.81371 7.89727 9.81371 7.76557 9.68351L6.26628 8.18531V15.1527ZM8.00007 8.97606L10.4271 6.54895C10.6608 6.31132 10.8598 6.04202 11.0185 5.74897C11.3633 5.1014 11.4965 4.36198 11.399 3.63482C11.1387 1.75293 9.4021 0.438381 7.52021 0.698682C5.81886 0.934011 4.55179 2.38823 4.55163 4.10578C4.55326 5.02365 4.92089 5.90298 5.573 6.54895L8.00007 8.97606ZM2.53196 14.2623C2.53223 14.4176 2.63956 14.5522 2.79087 14.587L5.59944 15.2459V7.51844L5.54712 7.46613L2.94894 6.82262C2.76873 6.77798 2.58644 6.88787 2.5418 7.06809C2.53547 7.09369 2.53216 7.11997 2.53193 7.14634V14.2623H2.53196Z" fill="#4B7CC6"/>
<path d="M8.00005 1.67529C9.26511 1.67529 10.2906 2.70083 10.2906 3.96589C10.2893 5.23039 9.26455 6.25513 8.00005 6.2565C6.73498 6.2565 5.70945 5.23096 5.70945 3.96589C5.70945 2.70083 6.73498 1.67529 8.00005 1.67529ZM8.00005 5.58992C8.89682 5.58992 9.62381 4.86293 9.62381 3.96616C9.62287 3.06976 8.89645 2.34333 8.00005 2.3424C7.10328 2.3424 6.37629 3.06939 6.37629 3.96616C6.37629 4.86293 7.10328 5.58992 8.00005 5.58992Z" fill="#4B7CC6"/>
</g>
<defs>
<clipPath id="clip0">
<rect width="16" height="16" fill="white" transform="matrix(-1 0 0 1 16 0)"/>
</clipPath>
</defs>
</svg>
