<svg width="14" height="16" viewBox="0 0 14 16" fill="none" xmlns="http://www.w3.org/2000/svg">
<path d="M1.2506 6.3585C1.49273 6.16795 1.80944 6.10027 2.10832 6.17512L3.71161 6.57209C2.34929 4.75981 2.71405 2.18631 4.52629 0.823982C6.33857 -0.538342 8.91207 -0.17358 10.2744 1.63866C10.6939 2.19678 10.9642 2.85271 11.0596 3.5444C11.1575 4.27739 11.0593 5.02322 10.775 5.7059L12.4494 6.26384C12.8584 6.39951 13.1346 6.78181 13.1349 7.21276V14.3035C13.1329 14.855 12.6868 15.3019 12.1353 15.3048C12.0265 15.3047 11.9184 15.287 11.8152 15.2524L8.87446 14.2722L5.06883 15.971C5.00238 16.0012 4.92766 16.0081 4.85681 15.9904L4.85661 15.9912L1.6384 15.236C1.18521 15.1313 0.864428 14.7275 0.865061 14.2623V7.14634C0.864761 6.83823 1.00713 6.54732 1.2506 6.3585ZM9.20058 13.6745L12.0309 14.6198C12.2049 14.6779 12.393 14.5839 12.451 14.4099C12.4625 14.3756 12.4682 14.3396 12.4681 14.3035V7.21276C12.4675 7.06892 12.375 6.94155 12.2384 6.89644L10.4642 6.30515C10.3051 6.56396 10.1172 6.80389 9.9041 7.02041L9.20058 7.72859V13.6745ZM5.26622 15.1527L8.53374 13.6986V8.3957L7.24087 9.68351C7.10917 9.81371 6.89721 9.81371 6.76551 9.68351L5.26622 8.18531V15.1527ZM7 8.97606L9.42708 6.54895C9.6607 6.31132 9.85976 6.04202 10.0184 5.74897C10.3633 5.1014 10.4964 4.36198 10.3989 3.63482C10.1386 1.75293 8.40204 0.438381 6.52015 0.698682C4.8188 0.934011 3.55173 2.38823 3.55157 4.10578C3.5532 5.02365 3.92083 5.90298 4.57293 6.54895L7 8.97606ZM1.5319 14.2623C1.53217 14.4176 1.6395 14.5522 1.7908 14.587L4.59937 15.2459V7.51844L4.54706 7.46613L1.94888 6.82262C1.76867 6.77798 1.58638 6.88787 1.54174 7.06809C1.5354 7.09369 1.5321 7.11997 1.53187 7.14634V14.2623H1.5319Z" fill="#9C9C9C"/>
</svg>
