<svg width="16" height="18" viewBox="0 0 16 18" fill="none" xmlns="http://www.w3.org/2000/svg">
<path d="M14.0977 14.0977C13.3709 14.0977 12.7528 14.5695 12.5321 15.2227H2.77734C1.82746 15.2227 1.05469 14.4499 1.05469 13.5C1.05469 12.5501 1.82746 11.7773 2.77734 11.7773H6.15234C7.68378 11.7773 8.92969 10.5314 8.92969 9C8.92969 7.46856 7.68378 6.22266 6.15234 6.22266H3.21789C3.05325 5.73518 2.66716 5.34909 2.17969 5.18446V3.90234H5.02734C5.31858 3.90234 5.55469 3.66623 5.55469 3.375V1.125C5.55469 0.833766 5.31858 0.597656 5.02734 0.597656H1.65234C1.36111 0.597656 1.125 0.833766 1.125 1.125V3.375V5.18446C0.471797 5.4051 0 6.02329 0 6.75C0 7.66111 0.741234 8.40234 1.65234 8.40234C2.37906 8.40234 2.99725 7.93055 3.21789 7.27734H6.15234C7.10223 7.27734 7.875 8.05011 7.875 9C7.875 9.94989 7.10223 10.7227 6.15234 10.7227H2.77734C1.2459 10.7227 0 11.9686 0 13.5C0 15.0314 1.2459 16.2773 2.77734 16.2773H12.5321C12.7528 16.9305 13.3709 17.4023 14.0977 17.4023C15.0088 17.4023 15.75 16.6611 15.75 15.75C15.75 14.8389 15.0088 14.0977 14.0977 14.0977ZM2.17969 1.65234H4.5V2.84766H2.17969V1.65234ZM1.65234 7.34766C1.32279 7.34766 1.05469 7.07955 1.05469 6.75C1.05469 6.42045 1.32279 6.15234 1.65234 6.15234C1.9819 6.15234 2.25 6.42045 2.25 6.75C2.25 7.07955 1.9819 7.34766 1.65234 7.34766ZM14.0977 16.3477C13.7681 16.3477 13.5 16.0796 13.5 15.75C13.5 15.4204 13.7681 15.1523 14.0977 15.1523C14.4272 15.1523 14.6953 15.4204 14.6953 15.75C14.6953 16.0796 14.4272 16.3477 14.0977 16.3477Z" fill="#4B7CC6"/>
</svg>
