<svg width="24" height="24" viewBox="0 0 24 24" fill="none" xmlns="http://www.w3.org/2000/svg">
<g clip-path="url(#clip0)">
<path d="M10.8541 5.1481L5.85417 0.148209C5.80819 0.102225 5.75218 0.0651943 5.69119 0.0392259C5.56918 -0.0117732 5.43118 -0.0117732 5.30921 0.0392259C5.24823 0.0652411 5.19222 0.102225 5.14623 0.148209L0.146248 5.14711C-0.0487492 5.34211 -0.0487492 5.65912 0.146248 5.85412C0.341245 6.04911 0.658255 6.04911 0.853252 5.85412L5.00017 1.70818V23.5008C5.00017 23.7768 5.22418 24.0008 5.50018 24.0008C5.77618 24.0008 6.00019 23.7768 6.00019 23.5008V1.70818L10.1461 5.85412C10.2441 5.95213 10.3721 6.00111 10.5001 6.00111C10.6281 6.00111 10.7561 5.95213 10.8541 5.8551C11.0491 5.6601 11.0491 5.34309 10.8541 5.1481Z" fill="#4B7CC6"/>
<path d="M23.8541 18.1462C23.6591 17.9512 23.3421 17.9512 23.1471 18.1462L19.0002 22.2932V0.500497C19.0002 0.224501 18.7762 0.000488281 18.5002 0.000488281C18.2242 0.000488281 18.0002 0.224501 18.0002 0.500497V22.2932L13.8542 18.1472C13.6592 17.9522 13.3422 17.9522 13.1472 18.1472C12.9522 18.3422 12.9522 18.6592 13.1472 18.8542L18.1462 23.8532C18.1922 23.8992 18.2482 23.9362 18.3092 23.9622C18.3702 23.9872 18.4352 24.0002 18.5002 24.0002C18.5652 24.0002 18.6302 23.9872 18.6912 23.9622C18.7532 23.9372 18.8082 23.9002 18.8542 23.8532L23.8531 18.8543C24.0491 18.6582 24.0491 18.3423 23.8541 18.1462Z" fill="#4B7CC6"/>
</g>
<defs>
<clipPath id="clip0">
<rect width="24" height="24" fill="white"/>
</clipPath>
</defs>
</svg>
