<svg width="12" height="12" viewBox="0 0 12 12" fill="none" xmlns="http://www.w3.org/2000/svg">
<g clip-path="url(#clip0)">
<path d="M6 11C3.243 11 1 8.757 1 6C1 3.243 3.243 1 6 1C8.757 1 11 3.243 11 6C11 8.757 8.757 11 6 11ZM6 1.75C3.6565 1.75 1.75 3.6565 1.75 6C1.75 8.3435 3.6565 10.25 6 10.25C8.3435 10.25 10.25 8.3435 10.25 6C10.25 3.6565 8.3435 1.75 6 1.75Z" fill="#4B7CC6"/>
<path d="M6 2.5C5.793 2.5 5.625 2.332 5.625 2.125V0.375C5.625 0.168 5.793 0 6 0C6.207 0 6.375 0.168 6.375 0.375V2.125C6.375 2.332 6.207 2.5 6 2.5Z" fill="#4B7CC6"/>
<path d="M11.625 6.375H9.875C9.668 6.375 9.5 6.207 9.5 6C9.5 5.793 9.668 5.625 9.875 5.625H11.625C11.832 5.625 12 5.793 12 6C12 6.207 11.832 6.375 11.625 6.375Z" fill="#4B7CC6"/>
<path d="M6 12C5.793 12 5.625 11.832 5.625 11.625V9.875C5.625 9.668 5.793 9.5 6 9.5C6.207 9.5 6.375 9.668 6.375 9.875V11.625C6.375 11.832 6.207 12 6 12Z" fill="#4B7CC6"/>
<path d="M2.125 6.375H0.375C0.168 6.375 0 6.207 0 6C0 5.793 0.168 5.625 0.375 5.625H2.125C2.332 5.625 2.5 5.793 2.5 6C2.5 6.207 2.332 6.375 2.125 6.375Z" fill="#4B7CC6"/>
<path d="M6 7.5C5.173 7.5 4.5 6.827 4.5 6C4.5 5.173 5.173 4.5 6 4.5C6.827 4.5 7.5 5.173 7.5 6C7.5 6.827 6.827 7.5 6 7.5ZM6 5.25C5.5865 5.25 5.25 5.5865 5.25 6C5.25 6.4135 5.5865 6.75 6 6.75C6.4135 6.75 6.75 6.4135 6.75 6C6.75 5.5865 6.4135 5.25 6 5.25Z" fill="#4B7CC6"/>
</g>
<defs>
<clipPath id="clip0">
<rect width="12" height="12" fill="white"/>
</clipPath>
</defs>
</svg>
