<svg width="12" height="12" viewBox="0 0 12 12" fill="none" xmlns="http://www.w3.org/2000/svg">
<path d="M1.07812 0C1.34805 0 1.5945 0.102047 1.78125 0.269414C1.96798 0.102047 2.21445 0 2.48438 0H9.51562C9.78555 0 10.032 0.102047 10.2188 0.269414C10.4055 0.102047 10.6519 0 10.9219 0C11.5047 0 12 0.471 12 1.05469C12 1.63763 11.5056 2.10938 10.9219 2.10938C10.6519 2.10938 10.4055 2.00733 10.2188 1.83996C10.1173 1.93092 9.99813 2.00245 9.86719 2.04891V8.83594C9.86719 8.95943 9.80241 9.07385 9.69652 9.13739L9.16406 9.45689V10.2422C9.16406 10.4363 9.00666 10.5938 8.8125 10.5938C8.61834 10.5938 8.46094 10.4363 8.46094 10.2422V9.87879L7.75781 10.3007V10.9453C7.75781 11.1395 7.60041 11.2969 7.40625 11.2969C7.21209 11.2969 7.05469 11.1395 7.05469 10.9453V10.7226L6.35156 11.1445V11.6484C6.35156 11.8426 6.19416 12 6 12C5.80584 12 5.64844 11.8426 5.64844 11.6484V11.1442L4.94531 10.7224V10.9453C4.94531 11.1395 4.78791 11.2969 4.59375 11.2969C4.39959 11.2969 4.24219 11.1395 4.24219 10.9453V10.3005L3.53906 9.8787V10.2422C3.53906 10.4363 3.38166 10.5938 3.1875 10.5938C2.99334 10.5938 2.83594 10.4363 2.83594 10.2422V9.45685L2.30351 9.13742C2.19762 9.07388 2.13281 8.95943 2.13281 8.83594V2.04891C2.00187 2.00245 1.88273 1.93092 1.78125 1.83996C1.5945 2.00733 1.34805 2.10938 1.07812 2.10938C0.495281 2.10938 0 1.63838 0 1.05469C0 0.471703 0.494484 0 1.07812 0ZM10.9219 1.40625C11.1216 1.40625 11.2969 1.24198 11.2969 1.05469C11.2969 0.867399 11.1216 0.703125 10.9219 0.703125C10.728 0.703125 10.5703 0.860836 10.5703 1.05469C10.5703 1.24854 10.728 1.40625 10.9219 1.40625ZM2.83594 8.63688L6.00021 10.5353L9.16406 8.63688V2.10938H2.83594V8.63688ZM2.48438 1.40625H9.51562C9.70948 1.40625 9.86719 1.24854 9.86719 1.05469C9.86719 0.860836 9.70948 0.703125 9.51562 0.703125H2.48438C2.29052 0.703125 2.13281 0.860836 2.13281 1.05469C2.13281 1.24854 2.29052 1.40625 2.48438 1.40625ZM1.07812 1.40625C1.27198 1.40625 1.42969 1.24854 1.42969 1.05469C1.42969 0.860836 1.27198 0.703125 1.07812 0.703125C0.878367 0.703125 0.703125 0.867399 0.703125 1.05469C0.703125 1.24198 0.878367 1.40625 1.07812 1.40625Z" fill="#4B7CC6"/>
<path d="M4.04784 4.30273L4.51076 4.53417L4.27931 4.07126C4.16271 3.83813 4.33245 3.5625 4.59375 3.5625H7.40625C7.66692 3.5625 7.83755 3.83756 7.72071 4.07128L7.48927 4.5342L7.95218 4.30275C8.1862 4.18573 8.46094 4.35694 8.46094 4.61719V7.42969C8.46094 7.69041 8.1859 7.86096 7.95216 7.74415L7.48924 7.5127L7.72069 7.97562C7.83729 8.20875 7.66755 8.48438 7.40625 8.48438H4.59375C4.33308 8.48438 4.16245 8.20931 4.27929 7.97559L4.51073 7.51268L4.04782 7.74413C3.81469 7.86073 3.53906 7.69099 3.53906 7.42969V4.61719C3.53906 4.35647 3.81413 4.18589 4.04784 4.30273ZM4.24219 6.86086L5.13966 6.41213C5.27496 6.34446 5.43846 6.37097 5.54545 6.47799C5.65245 6.58498 5.67898 6.74845 5.61131 6.88378L5.1626 7.78125H6.83742L6.38869 6.88378C6.32102 6.74845 6.34755 6.58498 6.45455 6.47799C6.56156 6.37097 6.72504 6.34446 6.86034 6.41213L7.75781 6.86084V5.18604L6.86034 5.63477C6.72502 5.70244 6.56152 5.67591 6.45455 5.56891C6.34755 5.46192 6.32102 5.29845 6.38869 5.16312L6.8374 4.26563H5.16258L5.61131 5.16309C5.67898 5.29842 5.65245 5.4619 5.54545 5.56889C5.43846 5.67588 5.27501 5.70239 5.13966 5.63475L4.24219 5.18604V6.86086Z" fill="#4B7CC6"/>
</svg>
