<svg width="12" height="12" viewBox="0 0 12 12" fill="none" xmlns="http://www.w3.org/2000/svg">
<path d="M10.4674 6.45452L9.76431 5.75147C9.62741 5.61436 9.40344 5.61485 9.26701 5.75147L8.56393 6.45455C8.42664 6.59185 8.42664 6.81443 8.56393 6.95173C8.70121 7.08902 8.92382 7.08902 9.06111 6.95173L9.16046 6.85238C9.08776 8.4105 7.88279 9.67749 6.3516 9.84755V4.19768C6.95743 4.04119 7.40628 3.48998 7.40628 2.83594C7.40628 2.06053 6.77544 1.42969 6.00003 1.42969C5.22463 1.42969 4.59378 2.06053 4.59378 2.83594C4.59378 3.48998 5.04264 4.04119 5.64847 4.19768V9.84755C4.11728 9.67749 2.91231 8.4105 2.83958 6.85235L2.93893 6.9517C3.00758 7.02038 3.09756 7.05469 3.18754 7.05469C3.27751 7.05469 3.36749 7.02038 3.43611 6.9517C3.57341 6.81441 3.57341 6.59182 3.43611 6.45452L2.73304 5.75145C2.59335 5.61155 2.36943 5.61757 2.23574 5.75145L1.53266 6.45452C1.39536 6.59182 1.39536 6.81441 1.53266 6.9517C1.66993 7.089 1.89254 7.089 2.02984 6.9517L2.13573 6.84581C2.21113 8.91232 3.91546 10.5703 6.00003 10.5703C8.08461 10.5703 9.78894 8.91232 9.86432 6.84584L9.97021 6.95173C10.0388 7.02038 10.1288 7.05469 10.2188 7.05469C10.3088 7.05469 10.3987 7.02038 10.4674 6.9517C10.6047 6.81441 10.6047 6.59182 10.4674 6.45452ZM5.29691 2.83594C5.29691 2.44823 5.61233 2.13281 6.00003 2.13281C6.38774 2.13281 6.70316 2.44823 6.70316 2.83594C6.70316 3.22364 6.38774 3.53906 6.00003 3.53906C5.61233 3.53906 5.29691 3.22364 5.29691 2.83594Z" fill="#4B7CC6"/>
<path d="M10.9219 0H1.07812C0.483656 0 0 0.483656 0 1.07813V10.9219C0 11.5163 0.483656 12 1.07812 12H10.9219C11.5163 12 12 11.5163 12 10.9219V1.07813C12 0.483656 11.5163 0 10.9219 0ZM11.2969 10.9219C11.2969 11.1286 11.1286 11.2969 10.9219 11.2969H1.07812C0.871359 11.2969 0.703125 11.1286 0.703125 10.9219V1.07813C0.703125 0.87136 0.871359 0.703125 1.07812 0.703125H10.9219C11.1286 0.703125 11.2969 0.87136 11.2969 1.07813V10.9219Z" fill="#4B7CC6"/>
</svg>
