<svg width="12" height="12" viewBox="0 0 12 12" fill="none" xmlns="http://www.w3.org/2000/svg">
<path d="M9.39844 9.39844C8.91396 9.39844 8.50184 9.71297 8.35474 10.1484H1.85156C1.2183 10.1484 0.703125 9.63326 0.703125 9C0.703125 8.36674 1.2183 7.85156 1.85156 7.85156H4.10156C5.12252 7.85156 5.95312 7.02096 5.95312 6C5.95312 4.97904 5.12252 4.14844 4.10156 4.14844H2.14526C2.0355 3.82345 1.77811 3.56606 1.45312 3.4563V2.60156H3.35156C3.54572 2.60156 3.70312 2.44416 3.70312 2.25V0.75C3.70312 0.555844 3.54572 0.398438 3.35156 0.398438H1.10156C0.907406 0.398438 0.75 0.555844 0.75 0.75V2.25V3.4563C0.314531 3.6034 0 4.01552 0 4.5C0 5.10741 0.494156 5.60156 1.10156 5.60156C1.58604 5.60156 1.99816 5.28703 2.14526 4.85156H4.10156C4.73482 4.85156 5.25 5.36674 5.25 6C5.25 6.63326 4.73482 7.14844 4.10156 7.14844H1.85156C0.830602 7.14844 0 7.97904 0 9C0 10.021 0.830602 10.8516 1.85156 10.8516H8.35474C8.50184 11.287 8.91396 11.6016 9.39844 11.6016C10.0058 11.6016 10.5 11.1074 10.5 10.5C10.5 9.89259 10.0058 9.39844 9.39844 9.39844ZM1.45312 1.10156H3V1.89844H1.45312V1.10156ZM1.10156 4.89844C0.881859 4.89844 0.703125 4.7197 0.703125 4.5C0.703125 4.2803 0.881859 4.10156 1.10156 4.10156C1.32127 4.10156 1.5 4.2803 1.5 4.5C1.5 4.7197 1.32127 4.89844 1.10156 4.89844ZM9.39844 10.8984C9.17873 10.8984 9 10.7197 9 10.5C9 10.2803 9.17873 10.1016 9.39844 10.1016C9.61814 10.1016 9.79688 10.2803 9.79688 10.5C9.79688 10.7197 9.61814 10.8984 9.39844 10.8984Z" fill="#4B7CC6"/>
<path d="M9.39844 2.64844C8.79103 2.64844 8.29688 3.14259 8.29688 3.75C8.29688 4.35741 8.79103 4.85156 9.39844 4.85156C10.0058 4.85156 10.5 4.35741 10.5 3.75C10.5 3.14259 10.0058 2.64844 9.39844 2.64844ZM9.39844 4.14844C9.17873 4.14844 9 3.9697 9 3.75C9 3.5303 9.17873 3.35156 9.39844 3.35156C9.61814 3.35156 9.79688 3.5303 9.79688 3.75C9.79688 3.9697 9.61814 4.14844 9.39844 4.14844Z" fill="#4B7CC6"/>
<path d="M9.39844 1.14844C7.96392 1.14844 6.79688 2.31548 6.79688 3.75C6.79688 4.52463 7.13435 5.24634 7.72561 5.74254L9.08522 8.40966C9.14524 8.52743 9.26625 8.60156 9.39844 8.60156C9.53063 8.60156 9.65163 8.52743 9.71166 8.40966L11.0713 5.74254C11.6625 5.24634 12 4.52463 12 3.75C12 2.31548 10.833 1.14844 9.39844 1.14844ZM10.5738 5.24093C10.534 5.27236 10.5015 5.31199 10.4785 5.35718L9.39844 7.47591L8.31839 5.35718C8.29537 5.31202 8.26284 5.27236 8.22305 5.24093C7.76353 4.87809 7.5 4.33467 7.5 3.75C7.5 2.70319 8.35162 1.85156 9.39844 1.85156C10.4453 1.85156 11.2969 2.70319 11.2969 3.75C11.2969 4.33467 11.0333 4.87809 10.5738 5.24093Z" fill="#4B7CC6"/>
</svg>
