<svg width="12" height="12" viewBox="0 0 12 12" fill="none" xmlns="http://www.w3.org/2000/svg">
<g clip-path="url(#clip0)">
<path d="M6.40589 6.13186C6.44634 6.23651 6.46875 6.35002 6.46875 6.46875C6.46875 6.98569 6.04819 7.40625 5.53125 7.40625C5.01431 7.40625 4.59375 6.98569 4.59375 6.46875C4.59375 5.95181 5.01431 5.53125 5.53125 5.53125C5.58073 5.53125 5.62931 5.53516 5.67675 5.54259L7.13534 3.73671C7.29799 3.53531 7.59314 3.50391 7.79452 3.66659C7.99591 3.82924 8.0273 4.12437 7.86464 4.32577L6.40589 6.13186ZM5.80814 11.0543C5.71657 11.0597 5.62341 11.0625 5.53125 11.0625C2.99824 11.0625 0.9375 9.00176 0.9375 6.46875C0.9375 3.93574 2.99824 1.875 5.53125 1.875C8.01867 1.875 10.0791 3.89752 10.1242 6.38351C10.1289 6.64233 10.3427 6.84832 10.6014 6.84366C10.8603 6.83895 11.0663 6.62531 11.0616 6.36647C11.0351 4.91048 10.4481 3.54591 9.40868 2.52408C8.48011 1.61126 7.28377 1.06472 6 0.957422V0.46875C6 0.209859 5.79014 0 5.53125 0C5.27236 0 5.0625 0.209859 5.0625 0.46875V0.957352C3.76186 1.0658 2.55349 1.62413 1.62007 2.55755C0.575344 3.60227 0 4.9913 0 6.46875C0 7.9462 0.575344 9.33523 1.62007 10.3799C2.66477 11.4247 4.0538 12 5.53125 12C5.64187 12 5.75374 11.9967 5.86373 11.9902C6.12216 11.9748 6.31922 11.7529 6.30387 11.4945C6.28852 11.236 6.06668 11.0389 5.80814 11.0543ZM8.724 1.15753L9.98855 2.20744C10.0761 2.28012 10.1822 2.31555 10.2877 2.31555C10.4223 2.31555 10.5559 2.25787 10.6486 2.14622C10.814 1.94702 10.7866 1.65152 10.5874 1.48612L9.32285 0.436219C9.12366 0.270844 8.82813 0.298242 8.66276 0.497438C8.49743 0.696633 8.52483 0.992156 8.724 1.15753ZM0.774797 2.31555C0.878906 2.31555 0.983695 2.28103 1.0707 2.21011L2.35868 1.1602C2.55935 0.996633 2.5894 0.701367 2.42583 0.500695C2.26226 0.300023 1.96699 0.269953 1.76632 0.433547L0.478336 1.48345C0.277664 1.64702 0.247617 1.94229 0.411188 2.14296C0.503836 2.25663 0.638742 2.31555 0.774797 2.31555ZM12 9.1875C12 9.48157 11.85 9.74836 11.5987 9.90115L8.34738 11.8778C8.21445 11.9587 8.06395 11.9992 7.91337 11.9992C7.77225 11.9992 7.63106 11.9636 7.50396 11.8922C7.2413 11.7445 7.07812 11.4655 7.07812 11.1642V7.2108C7.07812 6.90947 7.2413 6.63052 7.50396 6.48281C7.76665 6.33509 8.08988 6.34057 8.34738 6.49716L11.5987 8.47385C11.85 8.62664 12 8.89343 12 9.1875ZM10.9679 9.1875L8.01562 7.39259V10.9824L10.9679 9.1875Z" fill="#4B7CC6"/>
</g>
<defs>
<clipPath id="clip0">
<rect width="12" height="12" fill="white"/>
</clipPath>
</defs>
</svg>
