<svg width="12" height="12" viewBox="0 0 12 12" fill="none" xmlns="http://www.w3.org/2000/svg">
<path d="M11.0187 1.47303C10.398 0.805882 9.52822 0.426282 8.61699 0.424875C7.70503 0.42593 6.83439 0.805329 6.21274 1.47261L6.00088 1.69648L5.78902 1.47261C4.5555 0.145012 2.47929 0.0687699 1.15172 1.30228C1.09289 1.35696 1.03607 1.41375 0.981392 1.47261C-0.327131 2.88401 -0.327131 5.06526 0.981392 6.47667L5.68953 11.4417C5.85242 11.6137 6.12386 11.621 6.29582 11.4581C6.30145 11.4528 6.30693 11.4473 6.31225 11.4417L11.0187 6.47667C12.3271 5.06542 12.3271 2.88428 11.0187 1.47303ZM10.3981 5.88611H10.3977L6.00088 10.5235L1.60369 5.88611C0.604053 4.80767 0.604053 3.14118 1.60369 2.06274C2.51148 1.07883 4.04503 1.01714 5.02894 1.92493C5.07671 1.96901 5.12267 2.01497 5.16674 2.06274L5.68953 2.61427C5.86181 2.78545 6.13997 2.78545 6.31225 2.61427L6.83504 2.06317C7.74283 1.07926 9.27638 1.01757 10.2603 1.92536C10.3081 1.96943 10.354 2.0154 10.3981 2.06317C11.4064 3.14332 11.4138 4.81284 10.3981 5.88611Z" fill="#4B7CC6"/>
</svg>
